<?xml version="1.0" encoding="utf-8"?>
<!-- Generator: Adobe Illustrator 23.0.3, SVG Export Plug-In . SVG Version: 6.00 Build 0)  -->
<svg version="1.1" id="Capa_1" xmlns="http://www.w3.org/2000/svg" xmlns:xlink="http://www.w3.org/1999/xlink" x="0px" y="0px"
	 viewBox="0 0 42.46 60.22" style="enable-background:new 0 0 42.46 60.22;" xml:space="preserve">
<style type="text/css">
	.st0{fill:#FFFFFF;}
	.st1{fill:#C3D548;}
	.st2{fill:#B6B8B9;}
	.st3{fill:#6E7072;}
</style>
<g>
	<g>
		<path class="st0" d="M36.06-220h5.15c0.7,0,1.26,0.56,1.26,1.26v57.7c0,0.7-0.56,1.26-1.26,1.26h-5.15c-0.7,0-1.26-0.56-1.26-1.26
			v-57.7C34.8-219.44,35.36-220,36.06-220z"/>
		<path class="st0" d="M58.21-164.65l30.26-46.93c0.54-0.84-0.06-1.94-1.06-1.94H62.12c-0.7,0-1.26-0.56-1.26-1.26v-3.97
			c0-0.7,0.56-1.26,1.26-1.26h35.82c0.7,0,1.26,0.56,1.26,1.26v2.93c0,0.24-0.07,0.48-0.2,0.68l-30.26,46.93
			c-0.54,0.84,0.06,1.94,1.06,1.94h28.44c0.7,0,1.26,0.56,1.26,1.26v3.97c0,0.7-0.56,1.26-1.26,1.26H59.27
			c-0.7,0-1.26-0.56-1.26-1.26v-2.93C58.01-164.21,58.08-164.44,58.21-164.65z"/>
		<path class="st0" d="M-54.27-159.78h-38.97c-0.7,0-1.26-0.56-1.26-1.26v-3.97c0-0.7,0.56-1.26,1.26-1.26h28.44
			c1,0,1.6-1.1,1.06-1.94L-94-215.13c-0.13-0.2-0.2-0.44-0.2-0.68v-2.93c0-0.7,0.56-1.26,1.26-1.26h35.82c0.7,0,1.26,0.56,1.26,1.26
			v3.97c0,0.7-0.56,1.26-1.26,1.26h-25.29c-1,0-1.6,1.1-1.06,1.94l30.26,46.93c0.13,0.2,0.2,0.44,0.2,0.68v2.93
			C-53.01-160.34-53.57-159.78-54.27-159.78z"/>
		<g>
			<path class="st0" d="M-36.91-220c-0.65,0-1.18,0.49-1.18,1.08v4.89l0,0c0,0.6,0.53,1.08,1.18,1.08h33.27
				c0.65,0,1.18-0.49,1.18-1.08l0,0v-4.89c0-0.6-0.53-1.08-1.18-1.08H-36.91z"/>
			<path class="st0" d="M-36.91-166.39c-0.65,0-1.18,0.45-1.18,1.01v4.58l0,0c0,0.56,0.53,1.01,1.18,1.01h33.27
				c0.65,0,1.18-0.45,1.18-1.01l0,0v-4.58c0-0.56-0.53-1.01-1.18-1.01H-36.91z"/>
			<path class="st0" d="M-17.97-189.38l4.77,2.22c0.27,0.13,0.18,0.53-0.12,0.53h-23.55c-0.68,0-1.23-0.55-1.23-1.23v-5.21
				c0-0.68,0.55-1.23,1.23-1.23h23.55c0.3,0,0.39,0.41,0.12,0.53l-4.77,2.22C-18.88-191.11-18.88-189.81-17.97-189.38z"/>
		</g>
		<path class="st0" d="M0.74-189.32c-0.98-0.45-0.98-1.84,0-2.29l8.66-3.95l9.39-4.28c0.83-0.38,1.78,0.23,1.78,1.15v8.24v8.24
			c0,0.92-0.95,1.53-1.78,1.15l-9.39-4.28L0.74-189.32z"/>
	</g>
</g>
<g>
	<g>
		<path class="st1" d="M36.06,0h5.15c0.7,0,1.26,0.56,1.26,1.26v57.7c0,0.7-0.56,1.26-1.26,1.26h-5.15c-0.7,0-1.26-0.56-1.26-1.26
			V1.26C34.8,0.56,35.36,0,36.06,0z"/>
		<path class="st1" d="M0.74,30.68c-0.98-0.45-0.98-1.84,0-2.29l8.66-3.95l9.39-4.28c0.83-0.38,1.78,0.23,1.78,1.15v8.24v8.24
			c0,0.92-0.95,1.53-1.78,1.15L9.4,34.64L0.74,30.68z"/>
	</g>
</g>
<g>
	<g>
		<path class="st1" d="M36.06-106h5.15c0.7,0,1.26,0.56,1.26,1.26v57.7c0,0.7-0.56,1.26-1.26,1.26h-5.15c-0.7,0-1.26-0.56-1.26-1.26
			v-57.7C34.8-105.44,35.36-106,36.06-106z"/>
		<path class="st1" d="M0.74-75.32c-0.98-0.45-0.98-1.84,0-2.29l8.66-3.95l9.39-4.28c0.83-0.38,1.78,0.23,1.78,1.15v8.24v8.24
			c0,0.92-0.95,1.53-1.78,1.15L9.4-71.36L0.74-75.32z"/>
	</g>
</g>
<g>
	<g>
		<g>
			<path class="st2" d="M-58.88-368.17h-2.88l-0.66,1.83h-0.56l2.41-6.55h0.51l2.39,6.55h-0.56L-58.88-368.17z M-61.59-368.65h2.53
				l-1.24-3.47h-0.03L-61.59-368.65z"/>
			<path class="st2" d="M-52.18-370.75l-0.38-0.03c-0.34,0-0.62,0.1-0.83,0.29c-0.22,0.19-0.37,0.45-0.47,0.79v3.36h-0.54v-4.87
				h0.47l0.07,0.81v0.05c0.14-0.3,0.33-0.53,0.57-0.7c0.24-0.17,0.52-0.25,0.85-0.25c0.07,0,0.13,0.01,0.19,0.02
				c0.06,0.01,0.11,0.02,0.15,0.03L-52.18-370.75z"/>
			<path class="st2" d="M-48.02-372.46v1.25h1.07v0.44h-1.07v3.17c0,0.32,0.06,0.54,0.17,0.68c0.12,0.13,0.27,0.2,0.46,0.2
				c0.07,0,0.13,0,0.19-0.01c0.06-0.01,0.13-0.02,0.22-0.04l0.08,0.4c-0.07,0.04-0.16,0.07-0.27,0.09
				c-0.11,0.02-0.21,0.03-0.32,0.03c-0.34,0-0.61-0.11-0.8-0.32c-0.19-0.22-0.29-0.56-0.29-1.03v-3.17h-0.84v-0.44h0.84v-1.25
				H-48.02z"/>
			<path class="st2" d="M-42.91-372.61h-0.54v-0.76h0.54V-372.61z M-42.91-366.34h-0.54v-4.87h0.54V-366.34z"/>
			<path class="st2" d="M-38.66-366.34v-4.43h-0.81v-0.44h0.81v-0.71c0-0.49,0.12-0.87,0.37-1.13c0.25-0.27,0.59-0.4,1.03-0.4
				c0.1,0,0.2,0.01,0.3,0.02c0.1,0.02,0.21,0.04,0.31,0.06l-0.07,0.45c-0.07-0.02-0.15-0.03-0.22-0.04
				c-0.07-0.01-0.16-0.02-0.27-0.02c-0.29,0-0.52,0.09-0.68,0.28c-0.16,0.19-0.24,0.45-0.24,0.78v0.71h1.1v0.44h-1.1v4.43H-38.66z"
				/>
			<path class="st2" d="M-33.08-372.61h-0.54v-0.76h0.54V-372.61z M-33.08-366.34h-0.54v-4.87h0.54V-366.34z"/>
			<path class="st2" d="M-27.42-366.7c0.35,0,0.65-0.1,0.92-0.31c0.27-0.2,0.4-0.49,0.4-0.85h0.48l0.01,0.03
				c0.01,0.45-0.17,0.83-0.53,1.13c-0.37,0.3-0.79,0.45-1.27,0.45c-0.65,0-1.15-0.23-1.51-0.68c-0.36-0.46-0.54-1.04-0.54-1.75
				v-0.19c0-0.71,0.18-1.29,0.54-1.75c0.36-0.46,0.86-0.68,1.51-0.68c0.52,0,0.96,0.16,1.31,0.47c0.35,0.31,0.52,0.73,0.5,1.24
				l-0.01,0.03h-0.48c0-0.39-0.13-0.7-0.38-0.93c-0.26-0.23-0.57-0.35-0.94-0.35c-0.51,0-0.89,0.19-1.14,0.56
				c-0.25,0.37-0.37,0.84-0.37,1.41v0.19c0,0.57,0.12,1.05,0.37,1.42C-28.31-366.89-27.93-366.7-27.42-366.7z"/>
			<path class="st2" d="M-21.47-372.61H-22v-0.76h0.54V-372.61z M-21.47-366.34H-22v-4.87h0.54V-366.34z"/>
			<path class="st2" d="M-14.51-366.34c-0.03-0.17-0.06-0.32-0.07-0.44c-0.02-0.12-0.02-0.25-0.02-0.38
				c-0.17,0.26-0.4,0.48-0.71,0.65c-0.3,0.17-0.65,0.26-1.04,0.26c-0.48,0-0.85-0.13-1.11-0.38c-0.26-0.25-0.39-0.6-0.39-1.03
				c0-0.43,0.19-0.79,0.57-1.06c0.38-0.27,0.88-0.4,1.48-0.4h1.2v-0.6c0-0.35-0.11-0.62-0.33-0.82c-0.22-0.2-0.53-0.3-0.93-0.3
				c-0.37,0-0.67,0.09-0.89,0.27c-0.23,0.18-0.34,0.41-0.34,0.68h-0.5l-0.01-0.03c-0.02-0.37,0.14-0.69,0.47-0.97
				c0.33-0.28,0.76-0.42,1.3-0.42c0.53,0,0.96,0.14,1.29,0.41c0.32,0.27,0.49,0.66,0.49,1.17v2.39c0,0.17,0.01,0.34,0.03,0.5
				c0.02,0.16,0.05,0.32,0.1,0.48H-14.51z M-16.3-366.72c0.41,0,0.77-0.1,1.08-0.29c0.3-0.2,0.51-0.45,0.62-0.76v-0.93h-1.2
				c-0.44,0-0.8,0.1-1.08,0.31c-0.29,0.21-0.43,0.46-0.43,0.75c0,0.28,0.09,0.5,0.27,0.67C-16.86-366.81-16.61-366.72-16.3-366.72z"
				/>
			<path class="st2" d="M-9.64-366.34h-0.54v-7.02h0.54V-366.34z"/>
			<path class="st2" d="M-2.64-366.34h-0.54v-6.55h0.54V-366.34z"/>
			<path class="st2" d="M1.91-371.21l0.05,0.85c0.16-0.3,0.37-0.53,0.63-0.69c0.26-0.16,0.58-0.25,0.94-0.25
				c0.53,0,0.93,0.16,1.21,0.48c0.28,0.32,0.41,0.83,0.41,1.51v2.97H4.61v-2.96c0-0.56-0.1-0.95-0.31-1.18
				c-0.21-0.23-0.5-0.35-0.89-0.35c-0.38,0-0.69,0.09-0.93,0.28c-0.24,0.19-0.41,0.44-0.51,0.76v3.45H1.43v-4.87H1.91z"/>
			<path class="st2" d="M9.79-372.46v1.25h1.07v0.44H9.79v3.17c0,0.32,0.06,0.54,0.17,0.68c0.12,0.13,0.27,0.2,0.46,0.2
				c0.07,0,0.13,0,0.19-0.01c0.06-0.01,0.13-0.02,0.22-0.04l0.08,0.4c-0.07,0.04-0.16,0.07-0.27,0.09
				c-0.11,0.02-0.21,0.03-0.32,0.03c-0.34,0-0.61-0.11-0.8-0.32c-0.19-0.22-0.29-0.56-0.29-1.03v-3.17H8.41v-0.44h0.84v-1.25H9.79z"
				/>
			<path class="st2" d="M16.15-366.25c-0.63,0-1.14-0.22-1.53-0.67c-0.39-0.45-0.59-1.02-0.59-1.72v-0.25c0-0.7,0.2-1.28,0.6-1.74
				c0.4-0.46,0.89-0.68,1.48-0.68c0.59,0,1.05,0.19,1.37,0.57c0.32,0.38,0.48,0.89,0.48,1.53v0.42h-3.39v0.15
				c0,0.55,0.14,1.02,0.42,1.38c0.28,0.37,0.67,0.55,1.16,0.55c0.3,0,0.57-0.05,0.82-0.15s0.46-0.23,0.62-0.39l0.23,0.37
				c-0.17,0.18-0.4,0.33-0.67,0.45C16.87-366.31,16.54-366.25,16.15-366.25z M16.1-370.84c-0.41,0-0.75,0.15-1.02,0.45
				c-0.27,0.3-0.42,0.67-0.47,1.13l0.01,0.03h2.79v-0.11c0-0.43-0.11-0.79-0.34-1.07C16.85-370.7,16.53-370.84,16.1-370.84z"/>
			<path class="st2" d="M22.04-366.34H21.5v-7.02h0.54V-366.34z"/>
			<path class="st2" d="M26.52-366.34h-0.54v-7.02h0.54V-366.34z"/>
			<path class="st2" d="M31-372.61h-0.54v-0.76H31V-372.61z M31-366.34h-0.54v-4.87H31V-366.34z"/>
			<path class="st2" d="M34.68-368.74c0-0.78,0.16-1.4,0.49-1.87c0.33-0.47,0.79-0.7,1.37-0.7c0.35,0,0.64,0.07,0.9,0.22
				c0.26,0.15,0.46,0.36,0.63,0.63l0.08-0.76h0.44v4.9c0,0.62-0.17,1.1-0.51,1.44c-0.34,0.34-0.83,0.5-1.45,0.5
				c-0.23,0-0.48-0.03-0.75-0.09c-0.27-0.06-0.5-0.13-0.7-0.23l0.1-0.45c0.19,0.1,0.4,0.17,0.62,0.22c0.22,0.05,0.46,0.07,0.71,0.07
				c0.48,0,0.84-0.12,1.08-0.37c0.24-0.25,0.36-0.61,0.36-1.09V-367c-0.17,0.24-0.37,0.43-0.63,0.56c-0.25,0.13-0.55,0.2-0.88,0.2
				c-0.58,0-1.04-0.22-1.37-0.65c-0.33-0.44-0.49-1.02-0.49-1.74V-368.74z M35.22-368.64c0,0.59,0.12,1.06,0.36,1.4
				c0.24,0.35,0.59,0.52,1.07,0.52c0.34,0,0.63-0.08,0.86-0.23c0.23-0.15,0.41-0.37,0.54-0.64v-2.32c-0.12-0.27-0.3-0.5-0.52-0.67
				c-0.23-0.17-0.52-0.26-0.87-0.26c-0.47,0-0.83,0.2-1.07,0.59c-0.24,0.39-0.36,0.89-0.36,1.51V-368.64z"/>
			<path class="st2" d="M44.24-366.25c-0.63,0-1.14-0.22-1.53-0.67c-0.39-0.45-0.59-1.02-0.59-1.72v-0.25c0-0.7,0.2-1.28,0.6-1.74
				c0.4-0.46,0.89-0.68,1.48-0.68c0.59,0,1.05,0.19,1.37,0.57c0.32,0.38,0.48,0.89,0.48,1.53v0.42h-3.39v0.15
				c0,0.55,0.14,1.02,0.42,1.38c0.28,0.37,0.67,0.55,1.16,0.55c0.3,0,0.57-0.05,0.82-0.15s0.46-0.23,0.62-0.39l0.23,0.37
				c-0.17,0.18-0.4,0.33-0.67,0.45C44.96-366.31,44.63-366.25,44.24-366.25z M44.19-370.84c-0.41,0-0.75,0.15-1.02,0.45
				c-0.27,0.3-0.42,0.67-0.47,1.13l0.01,0.03h2.79v-0.11c0-0.43-0.11-0.79-0.34-1.07C44.94-370.7,44.62-370.84,44.19-370.84z"/>
			<path class="st2" d="M50-371.21l0.05,0.85c0.16-0.3,0.37-0.53,0.63-0.69c0.26-0.16,0.58-0.25,0.94-0.25
				c0.53,0,0.93,0.16,1.21,0.48c0.28,0.32,0.41,0.83,0.41,1.51v2.97h-0.54v-2.96c0-0.56-0.1-0.95-0.31-1.18
				c-0.21-0.23-0.5-0.35-0.89-0.35c-0.38,0-0.69,0.09-0.93,0.28c-0.24,0.19-0.41,0.44-0.51,0.76v3.45h-0.54v-4.87H50z"/>
			<path class="st2" d="M58.83-366.7c0.35,0,0.65-0.1,0.92-0.31c0.27-0.2,0.4-0.49,0.4-0.85h0.48l0.01,0.03
				c0.01,0.45-0.17,0.83-0.53,1.13c-0.37,0.3-0.79,0.45-1.27,0.45c-0.65,0-1.15-0.23-1.51-0.68c-0.36-0.46-0.54-1.04-0.54-1.75
				v-0.19c0-0.71,0.18-1.29,0.54-1.75c0.36-0.46,0.86-0.68,1.51-0.68c0.52,0,0.96,0.16,1.31,0.47s0.52,0.73,0.5,1.24l-0.01,0.03
				h-0.48c0-0.39-0.13-0.7-0.38-0.93c-0.26-0.23-0.57-0.35-0.94-0.35c-0.51,0-0.89,0.19-1.14,0.56c-0.25,0.37-0.37,0.84-0.37,1.41
				v0.19c0,0.57,0.12,1.05,0.37,1.42C57.93-366.89,58.31-366.7,58.83-366.7z"/>
			<path class="st2" d="M66.03-366.25c-0.63,0-1.14-0.22-1.53-0.67c-0.39-0.45-0.59-1.02-0.59-1.72v-0.25c0-0.7,0.2-1.28,0.6-1.74
				c0.4-0.46,0.89-0.68,1.48-0.68c0.59,0,1.05,0.19,1.37,0.57c0.32,0.38,0.48,0.89,0.48,1.53v0.42h-3.39v0.15
				c0,0.55,0.14,1.02,0.42,1.38c0.28,0.37,0.67,0.55,1.16,0.55c0.3,0,0.57-0.05,0.82-0.15s0.46-0.23,0.62-0.39l0.23,0.37
				c-0.17,0.18-0.4,0.33-0.67,0.45S66.41-366.25,66.03-366.25z M65.98-370.84c-0.41,0-0.75,0.15-1.02,0.45
				c-0.27,0.3-0.42,0.67-0.47,1.13l0.01,0.03h2.79v-0.11c0-0.43-0.11-0.79-0.34-1.07C66.72-370.7,66.4-370.84,65.98-370.84z"/>
		</g>
	</g>
	<g>
		<path class="st1" d="M25.17-424h3.47c0.47,0,0.85,0.38,0.85,0.85v38.94c0,0.47-0.38,0.85-0.85,0.85h-3.47
			c-0.47,0-0.85-0.38-0.85-0.85v-38.94C24.32-423.62,24.7-424,25.17-424z"/>
		<path class="st3" d="M40.12-386.65l20.42-31.67c0.36-0.57-0.04-1.31-0.71-1.31H42.76c-0.47,0-0.85-0.38-0.85-0.85v-2.68
			c0-0.47,0.38-0.85,0.85-0.85h24.17c0.47,0,0.85,0.38,0.85,0.85v1.97c0,0.16-0.05,0.32-0.14,0.46l-20.42,31.67
			c-0.36,0.57,0.04,1.31,0.71,1.31h19.19c0.47,0,0.85,0.38,0.85,0.85v2.68c0,0.47-0.38,0.85-0.85,0.85h-26.3
			c-0.47,0-0.85-0.38-0.85-0.85v-1.97C39.99-386.35,40.03-386.51,40.12-386.65z"/>
		<path class="st3" d="M-35.78-383.36h-26.3c-0.47,0-0.85-0.38-0.85-0.85v-2.68c0-0.47,0.38-0.85,0.85-0.85h19.19
			c0.67,0,1.08-0.74,0.71-1.31l-20.42-31.67c-0.09-0.14-0.14-0.3-0.14-0.46v-1.97c0-0.47,0.38-0.85,0.85-0.85h24.17
			c0.47,0,0.85,0.38,0.85,0.85v2.68c0,0.47-0.38,0.85-0.85,0.85h-17.07c-0.67,0-1.08,0.74-0.71,1.31l20.42,31.67
			c0.09,0.14,0.14,0.3,0.14,0.46v1.97C-34.93-383.74-35.31-383.36-35.78-383.36z"/>
		<g>
			<path class="st3" d="M-24.07-424c-0.44,0-0.79,0.33-0.79,0.73v3.3l0,0c0,0.4,0.36,0.73,0.79,0.73h22.45
				c0.44,0,0.79-0.33,0.79-0.73l0,0v-3.3c0-0.4-0.36-0.73-0.79-0.73H-24.07z"/>
			<path class="st3" d="M-24.07-387.82c-0.44,0-0.79,0.31-0.79,0.68v3.09l0,0c0,0.38,0.36,0.68,0.79,0.68h22.45
				c0.44,0,0.79-0.31,0.79-0.68l0,0v-3.09c0-0.38-0.36-0.68-0.79-0.68H-24.07z"/>
			<path class="st3" d="M-11.28-403.34l3.22,1.5c0.18,0.09,0.12,0.36-0.08,0.36h-15.89c-0.46,0-0.83-0.37-0.83-0.83v-3.51
				c0-0.46,0.37-0.83,0.83-0.83h15.89c0.2,0,0.26,0.28,0.08,0.36l-3.22,1.5C-11.9-404.51-11.9-403.63-11.28-403.34z"/>
		</g>
		<path class="st1" d="M1.34-403.29c-0.66-0.3-0.66-1.24,0-1.55l5.84-2.67l6.33-2.89c0.56-0.26,1.2,0.15,1.2,0.77v5.56v5.56
			c0,0.62-0.64,1.03-1.2,0.77l-6.33-2.89L1.34-403.29z"/>
	</g>
</g>
<g>
	<g>
		<path class="st0" d="M307.72-210h3.23c0.44,0,0.79,0.35,0.79,0.79v36.18c0,0.44-0.35,0.79-0.79,0.79h-3.23
			c-0.44,0-0.79-0.35-0.79-0.79v-36.18C306.93-209.65,307.28-210,307.72-210z"/>
		<path class="st0" d="M321.61-175.29l18.98-29.43c0.34-0.53-0.04-1.22-0.66-1.22h-15.86c-0.44,0-0.79-0.35-0.79-0.79v-2.49
			c0-0.44,0.35-0.79,0.79-0.79h22.46c0.44,0,0.79,0.35,0.79,0.79v1.83c0,0.15-0.04,0.3-0.13,0.43l-18.98,29.43
			c-0.34,0.53,0.04,1.22,0.66,1.22h17.84c0.44,0,0.79,0.35,0.79,0.79v2.49c0,0.44-0.35,0.79-0.79,0.79h-24.44
			c-0.44,0-0.79-0.35-0.79-0.79v-1.83C321.49-175.01,321.53-175.16,321.61-175.29z"/>
		<path class="st0" d="M251.08-172.24h-24.44c-0.44,0-0.79-0.35-0.79-0.79v-2.49c0-0.44,0.35-0.79,0.79-0.79h17.84
			c0.63,0,1-0.69,0.66-1.22l-18.98-29.43c-0.08-0.13-0.13-0.28-0.13-0.43v-1.83c0-0.44,0.35-0.79,0.79-0.79h22.46
			c0.44,0,0.79,0.35,0.79,0.79v2.49c0,0.44-0.35,0.79-0.79,0.79h-15.86c-0.63,0-1,0.69-0.66,1.22l18.98,29.43
			c0.08,0.13,0.13,0.28,0.13,0.43v1.83C251.87-172.59,251.52-172.24,251.08-172.24z"/>
		<g>
			<path class="st0" d="M261.96-210c-0.41,0-0.74,0.3-0.74,0.68v3.07l0,0c0,0.38,0.33,0.68,0.74,0.68h20.86
				c0.41,0,0.74-0.3,0.74-0.68l0,0v-3.07c0-0.38-0.33-0.68-0.74-0.68H261.96z"/>
			<path class="st0" d="M261.96-176.38c-0.41,0-0.74,0.28-0.74,0.64v2.87l0,0c0,0.35,0.33,0.64,0.74,0.64h20.86
				c0.41,0,0.74-0.28,0.74-0.64l0,0v-2.87c0-0.35-0.33-0.64-0.74-0.64H261.96z"/>
			<path class="st0" d="M273.84-190.8l2.99,1.39c0.17,0.08,0.11,0.34-0.07,0.34h-14.77c-0.43,0-0.77-0.34-0.77-0.77v-3.26
				c0-0.43,0.34-0.77,0.77-0.77h14.77c0.19,0,0.24,0.26,0.07,0.34l-2.99,1.39C273.27-191.89,273.27-191.07,273.84-190.8z"/>
		</g>
		<path class="st0" d="M285.57-190.76c-0.62-0.28-0.62-1.16,0-1.44l5.43-2.48l5.89-2.69c0.52-0.24,1.12,0.14,1.12,0.72v5.16v5.16
			c0,0.57-0.59,0.96-1.12,0.72l-5.89-2.69L285.57-190.76z"/>
	</g>
</g>
<g>
	<g>
		<path class="st1" d="M307.72-99h3.23c0.44,0,0.79,0.35,0.79,0.79v36.18c0,0.44-0.35,0.79-0.79,0.79h-3.23
			c-0.44,0-0.79-0.35-0.79-0.79v-36.18C306.93-98.65,307.28-99,307.72-99z"/>
		<path class="st1" d="M285.57-79.76c-0.62-0.28-0.62-1.16,0-1.44l5.43-2.48l5.89-2.69c0.52-0.24,1.12,0.14,1.12,0.72v5.16v5.16
			c0,0.57-0.59,0.96-1.12,0.72L291-77.28L285.57-79.76z"/>
	</g>
</g>
<g>
	<g>
		<g>
			<path class="st2" d="M233.35-371.66h-2.49l-0.57,1.58h-0.48l2.08-5.67h0.44l2.07,5.67h-0.48L233.35-371.66z M231.01-372.08h2.19
				l-1.08-3.01h-0.02L231.01-372.08z"/>
			<path class="st2" d="M239.16-373.89l-0.33-0.02c-0.29,0-0.53,0.08-0.72,0.25c-0.19,0.16-0.32,0.39-0.4,0.68v2.91h-0.47v-4.22
				h0.41l0.06,0.7v0.05c0.12-0.26,0.29-0.46,0.49-0.61c0.21-0.15,0.45-0.22,0.73-0.22c0.06,0,0.11,0,0.16,0.01
				c0.05,0.01,0.09,0.02,0.13,0.03L239.16-373.89z"/>
			<path class="st2" d="M242.76-375.37v1.08h0.93v0.38h-0.93v2.75c0,0.28,0.05,0.47,0.15,0.59c0.1,0.12,0.23,0.17,0.4,0.17
				c0.06,0,0.11,0,0.17-0.01c0.05-0.01,0.12-0.02,0.19-0.03l0.07,0.35c-0.06,0.03-0.14,0.06-0.23,0.08
				c-0.09,0.02-0.18,0.03-0.27,0.03c-0.3,0-0.53-0.09-0.69-0.28c-0.17-0.19-0.25-0.48-0.25-0.89v-2.75h-0.73v-0.38h0.73v-1.08
				H242.76z"/>
			<path class="st2" d="M247.19-375.5h-0.46v-0.65h0.46V-375.5z M247.19-370.08h-0.46v-4.22h0.46V-370.08z"/>
			<path class="st2" d="M250.86-370.08v-3.83h-0.7v-0.38h0.7v-0.62c0-0.42,0.11-0.75,0.32-0.98c0.21-0.23,0.51-0.35,0.89-0.35
				c0.08,0,0.17,0.01,0.26,0.02s0.18,0.03,0.27,0.05l-0.06,0.39c-0.06-0.02-0.13-0.03-0.19-0.04c-0.06-0.01-0.14-0.01-0.23-0.01
				c-0.25,0-0.45,0.08-0.59,0.24c-0.14,0.16-0.2,0.39-0.2,0.68v0.62h0.95v0.38h-0.95v3.83H250.86z"/>
			<path class="st2" d="M255.7-375.5h-0.46v-0.65h0.46V-375.5z M255.7-370.08h-0.46v-4.22h0.46V-370.08z"/>
			<path class="st2" d="M260.6-370.39c0.3,0,0.56-0.09,0.79-0.26c0.23-0.18,0.34-0.42,0.34-0.74h0.42l0.01,0.02
				c0.01,0.39-0.14,0.72-0.46,0.98c-0.32,0.26-0.68,0.39-1.1,0.39c-0.56,0-1-0.2-1.31-0.59c-0.31-0.39-0.47-0.9-0.47-1.52v-0.16
				c0-0.61,0.16-1.12,0.47-1.51c0.31-0.39,0.75-0.59,1.31-0.59c0.45,0,0.83,0.14,1.13,0.41s0.45,0.63,0.44,1.08l-0.01,0.02h-0.42
				c0-0.34-0.11-0.61-0.33-0.81c-0.22-0.2-0.49-0.3-0.81-0.3c-0.44,0-0.77,0.16-0.99,0.49c-0.22,0.32-0.32,0.73-0.32,1.22v0.16
				c0,0.5,0.11,0.91,0.32,1.23C259.82-370.55,260.15-370.39,260.6-370.39z"/>
			<path class="st2" d="M265.75-375.5h-0.46v-0.65h0.46V-375.5z M265.75-370.08h-0.46v-4.22h0.46V-370.08z"/>
			<path class="st2" d="M271.78-370.08c-0.03-0.15-0.05-0.28-0.06-0.38c-0.01-0.11-0.02-0.22-0.02-0.33
				c-0.15,0.23-0.35,0.42-0.61,0.57c-0.26,0.15-0.56,0.22-0.9,0.22c-0.41,0-0.73-0.11-0.96-0.33c-0.23-0.22-0.34-0.52-0.34-0.89
				c0-0.38,0.17-0.68,0.49-0.92c0.33-0.23,0.76-0.35,1.29-0.35h1.04v-0.52c0-0.3-0.1-0.54-0.29-0.71s-0.46-0.26-0.81-0.26
				c-0.32,0-0.58,0.08-0.77,0.23s-0.29,0.35-0.29,0.59h-0.43l-0.01-0.02c-0.02-0.32,0.12-0.6,0.41-0.84
				c0.29-0.24,0.66-0.36,1.12-0.36c0.46,0,0.83,0.12,1.11,0.35c0.28,0.24,0.42,0.58,0.42,1.02v2.07c0,0.15,0.01,0.29,0.03,0.43
				c0.02,0.14,0.04,0.28,0.08,0.42H271.78z M270.23-370.41c0.36,0,0.67-0.08,0.93-0.26c0.26-0.17,0.44-0.39,0.53-0.66v-0.81h-1.04
				c-0.38,0-0.69,0.09-0.94,0.27c-0.25,0.18-0.37,0.4-0.37,0.65c0,0.24,0.08,0.43,0.24,0.58
				C269.73-370.48,269.95-370.41,270.23-370.41z"/>
			<path class="st2" d="M275.99-370.08h-0.46v-6.08h0.46V-370.08z"/>
			<path class="st2" d="M282.05-370.08h-0.47v-5.67h0.47V-370.08z"/>
			<path class="st2" d="M285.99-374.29l0.04,0.73c0.14-0.26,0.32-0.46,0.55-0.6c0.23-0.14,0.5-0.21,0.81-0.21
				c0.46,0,0.81,0.14,1.04,0.42c0.24,0.28,0.36,0.71,0.36,1.31v2.57h-0.47v-2.56c0-0.48-0.09-0.82-0.27-1.02
				c-0.18-0.2-0.44-0.3-0.77-0.3c-0.33,0-0.6,0.08-0.8,0.25c-0.2,0.16-0.35,0.38-0.44,0.66v2.98h-0.47v-4.22H285.99z"/>
			<path class="st2" d="M292.81-375.37v1.08h0.93v0.38h-0.93v2.75c0,0.28,0.05,0.47,0.15,0.59c0.1,0.12,0.23,0.17,0.4,0.17
				c0.06,0,0.11,0,0.17-0.01c0.05-0.01,0.12-0.02,0.19-0.03l0.07,0.35c-0.06,0.03-0.14,0.06-0.23,0.08
				c-0.09,0.02-0.18,0.03-0.27,0.03c-0.3,0-0.53-0.09-0.69-0.28c-0.17-0.19-0.25-0.48-0.25-0.89v-2.75h-0.73v-0.38h0.73v-1.08
				H292.81z"/>
			<path class="st2" d="M298.32-370c-0.55,0-0.99-0.19-1.33-0.58c-0.34-0.39-0.51-0.88-0.51-1.49v-0.21c0-0.61,0.17-1.11,0.52-1.5
				c0.34-0.39,0.77-0.59,1.28-0.59c0.51,0,0.91,0.16,1.19,0.49c0.28,0.33,0.42,0.77,0.42,1.33v0.36h-2.93v0.13
				c0,0.48,0.12,0.88,0.36,1.2c0.24,0.32,0.58,0.48,1.01,0.48c0.26,0,0.49-0.04,0.71-0.13c0.22-0.08,0.39-0.2,0.54-0.34l0.2,0.32
				c-0.15,0.16-0.34,0.28-0.58,0.39C298.94-370.05,298.66-370,298.32-370z M298.28-373.97c-0.36,0-0.65,0.13-0.88,0.39
				c-0.23,0.26-0.37,0.58-0.41,0.98l0.01,0.02h2.42v-0.1c0-0.37-0.1-0.68-0.29-0.93C298.93-373.85,298.64-373.97,298.28-373.97z"/>
			<path class="st2" d="M303.42-370.08h-0.46v-6.08h0.46V-370.08z"/>
			<path class="st2" d="M307.3-370.08h-0.46v-6.08h0.46V-370.08z"/>
			<path class="st2" d="M311.18-375.5h-0.46v-0.65h0.46V-375.5z M311.18-370.08h-0.46v-4.22h0.46V-370.08z"/>
			<path class="st2" d="M314.37-372.15c0-0.67,0.14-1.21,0.43-1.61c0.28-0.4,0.68-0.61,1.19-0.61c0.3,0,0.56,0.06,0.78,0.19
				c0.22,0.13,0.4,0.31,0.55,0.55l0.07-0.66h0.38v4.24c0,0.54-0.15,0.95-0.44,1.24c-0.3,0.29-0.72,0.44-1.26,0.44
				c-0.2,0-0.42-0.02-0.65-0.07c-0.23-0.05-0.43-0.12-0.6-0.2l0.09-0.39c0.17,0.08,0.35,0.15,0.54,0.19
				c0.19,0.04,0.4,0.06,0.61,0.06c0.42,0,0.73-0.11,0.93-0.32c0.21-0.21,0.31-0.53,0.31-0.94v-0.6c-0.14,0.21-0.32,0.37-0.54,0.48
				c-0.22,0.11-0.47,0.17-0.76,0.17c-0.5,0-0.9-0.19-1.18-0.56c-0.28-0.38-0.43-0.88-0.43-1.51V-372.15z M314.83-372.07
				c0,0.51,0.1,0.91,0.31,1.22c0.21,0.3,0.51,0.45,0.92,0.45c0.3,0,0.54-0.07,0.75-0.2c0.2-0.13,0.36-0.32,0.47-0.55v-2.01
				c-0.11-0.24-0.26-0.43-0.45-0.58s-0.45-0.22-0.75-0.22c-0.41,0-0.72,0.17-0.93,0.51c-0.21,0.34-0.31,0.77-0.31,1.31V-372.07z"/>
			<path class="st2" d="M322.64-370c-0.55,0-0.99-0.19-1.33-0.58c-0.34-0.39-0.51-0.88-0.51-1.49v-0.21c0-0.61,0.17-1.11,0.52-1.5
				c0.34-0.39,0.77-0.59,1.28-0.59c0.51,0,0.91,0.16,1.19,0.49c0.28,0.33,0.42,0.77,0.42,1.33v0.36h-2.93v0.13
				c0,0.48,0.12,0.88,0.36,1.2c0.24,0.32,0.58,0.48,1.01,0.48c0.26,0,0.49-0.04,0.71-0.13c0.22-0.08,0.39-0.2,0.54-0.34l0.2,0.32
				c-0.15,0.16-0.34,0.28-0.58,0.39C323.27-370.05,322.98-370,322.64-370z M322.6-373.97c-0.36,0-0.65,0.13-0.88,0.39
				c-0.23,0.26-0.37,0.58-0.41,0.98l0.01,0.02h2.42v-0.1c0-0.37-0.1-0.68-0.29-0.93C323.25-373.85,322.97-373.97,322.6-373.97z"/>
			<path class="st2" d="M327.63-374.29l0.04,0.73c0.14-0.26,0.32-0.46,0.55-0.6c0.23-0.14,0.5-0.21,0.81-0.21
				c0.46,0,0.81,0.14,1.04,0.42c0.24,0.28,0.36,0.71,0.36,1.31v2.57h-0.47v-2.56c0-0.48-0.09-0.82-0.27-1.02
				c-0.18-0.2-0.44-0.3-0.77-0.3c-0.33,0-0.6,0.08-0.8,0.25c-0.2,0.16-0.35,0.38-0.44,0.66v2.98h-0.47v-4.22H327.63z"/>
			<path class="st2" d="M335.27-370.39c0.3,0,0.56-0.09,0.79-0.26c0.23-0.18,0.34-0.42,0.34-0.74h0.42l0.01,0.02
				c0.01,0.39-0.14,0.72-0.46,0.98c-0.32,0.26-0.68,0.39-1.1,0.39c-0.56,0-1-0.2-1.31-0.59c-0.31-0.39-0.47-0.9-0.47-1.52v-0.16
				c0-0.61,0.16-1.12,0.47-1.51c0.31-0.39,0.75-0.59,1.31-0.59c0.45,0,0.83,0.14,1.13,0.41c0.3,0.27,0.45,0.63,0.44,1.08l-0.01,0.02
				h-0.42c0-0.34-0.11-0.61-0.33-0.81c-0.22-0.2-0.49-0.3-0.81-0.3c-0.44,0-0.77,0.16-0.99,0.49c-0.22,0.32-0.32,0.73-0.32,1.22
				v0.16c0,0.5,0.11,0.91,0.32,1.23C334.5-370.55,334.82-370.39,335.27-370.39z"/>
			<path class="st2" d="M341.5-370c-0.55,0-0.99-0.19-1.33-0.58c-0.34-0.39-0.51-0.88-0.51-1.49v-0.21c0-0.61,0.17-1.11,0.52-1.5
				c0.34-0.39,0.77-0.59,1.28-0.59c0.51,0,0.91,0.16,1.19,0.49c0.28,0.33,0.42,0.77,0.42,1.33v0.36h-2.93v0.13
				c0,0.48,0.12,0.88,0.36,1.2c0.24,0.32,0.58,0.48,1.01,0.48c0.26,0,0.49-0.04,0.71-0.13c0.22-0.08,0.39-0.2,0.54-0.34l0.2,0.32
				c-0.15,0.16-0.34,0.28-0.58,0.39C342.13-370.05,341.84-370,341.5-370z M341.46-373.97c-0.36,0-0.65,0.13-0.88,0.39
				c-0.23,0.26-0.37,0.58-0.41,0.98l0.01,0.02h2.42v-0.1c0-0.37-0.1-0.68-0.29-0.93C342.11-373.85,341.83-373.97,341.46-373.97z"/>
		</g>
	</g>
	<g>
		<path class="st1" d="M306.13-420h3.01c0.41,0,0.74,0.33,0.74,0.74v33.71c0,0.41-0.33,0.74-0.74,0.74h-3.01
			c-0.41,0-0.74-0.33-0.74-0.74v-33.71C305.39-419.67,305.72-420,306.13-420z"/>
		<path class="st3" d="M319.07-387.66l17.68-27.42c0.32-0.49-0.04-1.13-0.62-1.13h-14.78c-0.41,0-0.74-0.33-0.74-0.74v-2.32
			c0-0.41,0.33-0.74,0.74-0.74h20.93c0.41,0,0.74,0.33,0.74,0.74v1.71c0,0.14-0.04,0.28-0.12,0.4l-17.68,27.42
			c-0.32,0.49,0.04,1.13,0.62,1.13h16.62c0.41,0,0.74,0.33,0.74,0.74v2.32c0,0.41-0.33,0.74-0.74,0.74h-22.77
			c-0.41,0-0.74-0.33-0.74-0.74v-1.71C318.96-387.4,319-387.54,319.07-387.66z"/>
		<path class="st3" d="M253.36-384.82h-22.77c-0.41,0-0.74-0.33-0.74-0.74v-2.32c0-0.41,0.33-0.74,0.74-0.74h16.62
			c0.58,0,0.93-0.64,0.62-1.13l-17.68-27.42c-0.08-0.12-0.12-0.26-0.12-0.4v-1.71c0-0.41,0.33-0.74,0.74-0.74h20.93
			c0.41,0,0.74,0.33,0.74,0.74v2.32c0,0.41-0.33,0.74-0.74,0.74h-14.78c-0.58,0-0.93,0.64-0.62,1.13l17.68,27.42
			c0.08,0.12,0.12,0.26,0.12,0.4v1.71C254.09-385.15,253.76-384.82,253.36-384.82z"/>
		<g>
			<path class="st3" d="M263.5-420c-0.38,0-0.69,0.28-0.69,0.63v2.86v0c0,0.35,0.31,0.63,0.69,0.63h19.44
				c0.38,0,0.69-0.28,0.69-0.63v0v-2.86c0-0.35-0.31-0.63-0.69-0.63H263.5z"/>
			<path class="st3" d="M263.5-388.68c-0.38,0-0.69,0.27-0.69,0.59v2.67l0,0c0,0.33,0.31,0.59,0.69,0.59h19.44
				c0.38,0,0.69-0.27,0.69-0.59l0,0v-2.67c0-0.33-0.31-0.59-0.69-0.59H263.5z"/>
			<path class="st3" d="M274.57-402.11l2.79,1.3c0.16,0.07,0.11,0.31-0.07,0.31h-13.76c-0.4,0-0.72-0.32-0.72-0.72v-3.04
				c0-0.4,0.32-0.72,0.72-0.72h13.76c0.18,0,0.23,0.24,0.07,0.31l-2.79,1.3C274.03-403.12,274.03-402.36,274.57-402.11z"/>
		</g>
		<path class="st1" d="M285.49-402.07c-0.57-0.26-0.57-1.08,0-1.34l5.06-2.31l5.48-2.5c0.49-0.22,1.04,0.13,1.04,0.67v4.81v4.81
			c0,0.54-0.55,0.89-1.04,0.67l-5.48-2.5L285.49-402.07z"/>
	</g>
</g>
<g>
	<g>
		<path class="st0" d="M554.23-214h3.93c0.53,0,0.96,0.43,0.96,0.96v44.08c0,0.53-0.43,0.96-0.96,0.96h-3.93
			c-0.53,0-0.96-0.43-0.96-0.96v-44.08C553.27-213.57,553.7-214,554.23-214z"/>
		<path class="st0" d="M571.15-171.72l23.11-35.84c0.41-0.64-0.05-1.48-0.81-1.48h-19.32c-0.53,0-0.96-0.43-0.96-0.96v-3.03
			c0-0.53,0.43-0.96,0.96-0.96h27.36c0.53,0,0.96,0.43,0.96,0.96v2.23c0,0.18-0.05,0.37-0.15,0.52l-23.11,35.84
			c-0.41,0.64,0.05,1.48,0.81,1.48h21.73c0.53,0,0.96,0.43,0.96,0.96v3.03c0,0.53-0.43,0.96-0.96,0.96h-29.77
			c-0.53,0-0.96-0.43-0.96-0.96v-2.23C571-171.38,571.05-171.56,571.15-171.72z"/>
		<path class="st0" d="M485.23-168h-29.77c-0.53,0-0.96-0.43-0.96-0.96v-3.03c0-0.53,0.43-0.96,0.96-0.96h21.73
			c0.76,0,1.22-0.84,0.81-1.48l-23.11-35.84c-0.1-0.16-0.15-0.34-0.15-0.52v-2.23c0-0.53,0.43-0.96,0.96-0.96h27.36
			c0.53,0,0.96,0.43,0.96,0.96v3.03c0,0.53-0.43,0.96-0.96,0.96h-19.32c-0.76,0-1.22,0.84-0.81,1.48l23.11,35.84
			c0.1,0.16,0.15,0.34,0.15,0.52v2.23C486.2-168.43,485.77-168,485.23-168z"/>
		<g>
			<path class="st0" d="M498.49-214c-0.5,0-0.9,0.37-0.9,0.83v3.73l0,0c0,0.46,0.4,0.83,0.9,0.83h25.42c0.5,0,0.9-0.37,0.9-0.83l0,0
				v-3.73c0-0.46-0.4-0.83-0.9-0.83H498.49z"/>
			<path class="st0" d="M498.49-173.05c-0.5,0-0.9,0.35-0.9,0.78v3.5l0,0c0,0.43,0.4,0.78,0.9,0.78h25.42c0.5,0,0.9-0.35,0.9-0.78
				l0,0v-3.5c0-0.43-0.4-0.78-0.9-0.78H498.49z"/>
			<path class="st0" d="M512.96-190.61l3.65,1.7c0.21,0.1,0.14,0.41-0.09,0.41h-17.99c-0.52,0-0.94-0.42-0.94-0.94v-3.98
				c0-0.52,0.42-0.94,0.94-0.94h17.99c0.23,0,0.3,0.31,0.09,0.41l-3.65,1.7C512.26-191.93,512.26-190.94,512.96-190.61z"/>
		</g>
		<path class="st0" d="M527.25-190.56c-0.75-0.34-0.75-1.41,0-1.75l6.61-3.02l7.17-3.27c0.64-0.29,1.36,0.17,1.36,0.87v6.29v6.29
			c0,0.7-0.72,1.17-1.36,0.87l-7.17-3.27L527.25-190.56z"/>
	</g>
</g>
<g>
	<g>
		<path class="st1" d="M554.23-100h3.93c0.53,0,0.96,0.43,0.96,0.96v44.08c0,0.53-0.43,0.96-0.96,0.96h-3.93
			c-0.53,0-0.96-0.43-0.96-0.96v-44.08C553.27-99.57,553.7-100,554.23-100z"/>
		<path class="st1" d="M527.25-76.56c-0.75-0.34-0.75-1.41,0-1.75l6.61-3.02l7.17-3.27c0.64-0.29,1.36,0.17,1.36,0.87v6.29v6.29
			c0,0.7-0.72,1.17-1.36,0.87l-7.17-3.27L527.25-76.56z"/>
	</g>
</g>
<g>
	<g>
		<path class="st1" d="M36.06-323h5.15c0.7,0,1.26,0.56,1.26,1.26v57.7c0,0.7-0.56,1.26-1.26,1.26h-5.15c-0.7,0-1.26-0.56-1.26-1.26
			v-57.7C34.8-322.44,35.36-323,36.06-323z"/>
		<path class="st3" d="M58.21-267.65l30.26-46.93c0.54-0.84-0.06-1.94-1.06-1.94H62.12c-0.7,0-1.26-0.56-1.26-1.26v-3.97
			c0-0.7,0.56-1.26,1.26-1.26h35.82c0.7,0,1.26,0.56,1.26,1.26v2.93c0,0.24-0.07,0.48-0.2,0.68l-30.26,46.93
			c-0.54,0.84,0.06,1.94,1.06,1.94h28.44c0.7,0,1.26,0.56,1.26,1.26v3.97c0,0.7-0.56,1.26-1.26,1.26H59.27
			c-0.7,0-1.26-0.56-1.26-1.26v-2.93C58.01-267.21,58.08-267.44,58.21-267.65z"/>
		<path class="st3" d="M-54.27-262.78h-38.97c-0.7,0-1.26-0.56-1.26-1.26v-3.97c0-0.7,0.56-1.26,1.26-1.26h28.44
			c1,0,1.6-1.1,1.06-1.94L-94-318.13c-0.13-0.2-0.2-0.44-0.2-0.68v-2.93c0-0.7,0.56-1.26,1.26-1.26h35.82c0.7,0,1.26,0.56,1.26,1.26
			v3.97c0,0.7-0.56,1.26-1.26,1.26h-25.29c-1,0-1.6,1.1-1.06,1.94l30.26,46.93c0.13,0.2,0.2,0.44,0.2,0.68v2.93
			C-53.01-263.34-53.57-262.78-54.27-262.78z"/>
		<g>
			<path class="st3" d="M-36.91-323c-0.65,0-1.18,0.49-1.18,1.08v4.89l0,0c0,0.6,0.53,1.08,1.18,1.08h33.27
				c0.65,0,1.18-0.49,1.18-1.08l0,0v-4.89c0-0.6-0.53-1.08-1.18-1.08H-36.91z"/>
			<path class="st3" d="M-36.91-269.39c-0.65,0-1.18,0.45-1.18,1.01v4.58l0,0c0,0.56,0.53,1.01,1.18,1.01h33.27
				c0.65,0,1.18-0.45,1.18-1.01l0,0v-4.58c0-0.56-0.53-1.01-1.18-1.01H-36.91z"/>
			<path class="st3" d="M-17.97-292.38l4.77,2.22c0.27,0.13,0.18,0.53-0.12,0.53h-23.55c-0.68,0-1.23-0.55-1.23-1.23v-5.21
				c0-0.68,0.55-1.23,1.23-1.23h23.55c0.3,0,0.39,0.41,0.12,0.53l-4.77,2.22C-18.88-294.11-18.88-292.81-17.97-292.38z"/>
		</g>
		<path class="st1" d="M0.74-292.32c-0.98-0.45-0.98-1.84,0-2.29l8.66-3.95l9.39-4.28c0.83-0.38,1.78,0.23,1.78,1.15v8.24v8.24
			c0,0.92-0.95,1.53-1.78,1.15l-9.39-4.28L0.74-292.32z"/>
	</g>
</g>
<g>
	<g>
		<path class="st1" d="M307.72-316h3.23c0.44,0,0.79,0.35,0.79,0.79v36.18c0,0.44-0.35,0.79-0.79,0.79h-3.23
			c-0.44,0-0.79-0.35-0.79-0.79v-36.18C306.93-315.65,307.28-316,307.72-316z"/>
		<path class="st3" d="M321.61-281.29l18.98-29.43c0.34-0.53-0.04-1.22-0.66-1.22h-15.86c-0.44,0-0.79-0.35-0.79-0.79v-2.49
			c0-0.44,0.35-0.79,0.79-0.79h22.46c0.44,0,0.79,0.35,0.79,0.79v1.83c0,0.15-0.04,0.3-0.13,0.43l-18.98,29.43
			c-0.34,0.53,0.04,1.22,0.66,1.22h17.84c0.44,0,0.79,0.35,0.79,0.79v2.49c0,0.44-0.35,0.79-0.79,0.79h-24.44
			c-0.44,0-0.79-0.35-0.79-0.79v-1.83C321.49-281.01,321.53-281.16,321.61-281.29z"/>
		<path class="st3" d="M251.08-278.24h-24.44c-0.44,0-0.79-0.35-0.79-0.79v-2.49c0-0.44,0.35-0.79,0.79-0.79h17.84
			c0.63,0,1-0.69,0.66-1.22l-18.98-29.43c-0.08-0.13-0.13-0.28-0.13-0.43v-1.83c0-0.44,0.35-0.79,0.79-0.79h22.46
			c0.44,0,0.79,0.35,0.79,0.79v2.49c0,0.44-0.35,0.79-0.79,0.79h-15.86c-0.63,0-1,0.69-0.66,1.22l18.98,29.43
			c0.08,0.13,0.13,0.28,0.13,0.43v1.83C251.87-278.59,251.52-278.24,251.08-278.24z"/>
		<g>
			<path class="st3" d="M261.96-316c-0.41,0-0.74,0.3-0.74,0.68v3.07l0,0c0,0.38,0.33,0.68,0.74,0.68h20.86
				c0.41,0,0.74-0.3,0.74-0.68l0,0v-3.07c0-0.38-0.33-0.68-0.74-0.68H261.96z"/>
			<path class="st3" d="M261.96-282.38c-0.41,0-0.74,0.28-0.74,0.64v2.87l0,0c0,0.35,0.33,0.64,0.74,0.64h20.86
				c0.41,0,0.74-0.28,0.74-0.64l0,0v-2.87c0-0.35-0.33-0.64-0.74-0.64H261.96z"/>
			<path class="st3" d="M273.84-296.8l2.99,1.39c0.17,0.08,0.11,0.34-0.07,0.34h-14.77c-0.43,0-0.77-0.35-0.77-0.77v-3.26
				c0-0.43,0.34-0.77,0.77-0.77h14.77c0.19,0,0.24,0.26,0.07,0.34l-2.99,1.39C273.27-297.89,273.27-297.07,273.84-296.8z"/>
		</g>
		<path class="st1" d="M285.57-296.76c-0.62-0.28-0.62-1.16,0-1.44l5.43-2.48l5.89-2.69c0.52-0.24,1.12,0.14,1.12,0.72v5.16v5.16
			c0,0.57-0.59,0.96-1.12,0.72l-5.89-2.69L285.57-296.76z"/>
	</g>
</g>
<g>
	<g>
		<path class="st1" d="M554.23-317h3.93c0.53,0,0.96,0.43,0.96,0.96v44.08c0,0.53-0.43,0.96-0.96,0.96h-3.93
			c-0.53,0-0.96-0.43-0.96-0.96v-44.08C553.27-316.57,553.7-317,554.23-317z"/>
		<path class="st3" d="M571.15-274.72l23.11-35.84c0.41-0.64-0.05-1.48-0.81-1.48h-19.32c-0.53,0-0.96-0.43-0.96-0.96v-3.03
			c0-0.53,0.43-0.96,0.96-0.96h27.36c0.53,0,0.96,0.43,0.96,0.96v2.23c0,0.18-0.05,0.37-0.15,0.52l-23.11,35.84
			c-0.41,0.64,0.05,1.48,0.81,1.48h21.73c0.53,0,0.96,0.43,0.96,0.96v3.03c0,0.53-0.43,0.96-0.96,0.96h-29.77
			c-0.53,0-0.96-0.43-0.96-0.96v-2.23C571-274.38,571.05-274.56,571.15-274.72z"/>
		<path class="st3" d="M485.23-271h-29.77c-0.53,0-0.96-0.43-0.96-0.96v-3.03c0-0.53,0.43-0.96,0.96-0.96h21.73
			c0.76,0,1.22-0.84,0.81-1.48l-23.11-35.84c-0.1-0.16-0.15-0.34-0.15-0.52v-2.23c0-0.53,0.43-0.96,0.96-0.96h27.36
			c0.53,0,0.96,0.43,0.96,0.96v3.03c0,0.53-0.43,0.96-0.96,0.96h-19.32c-0.76,0-1.22,0.84-0.81,1.48l23.11,35.84
			c0.1,0.16,0.15,0.34,0.15,0.52v2.23C486.2-271.43,485.77-271,485.23-271z"/>
		<g>
			<path class="st3" d="M498.49-317c-0.5,0-0.9,0.37-0.9,0.83v3.73l0,0c0,0.46,0.4,0.83,0.9,0.83h25.42c0.5,0,0.9-0.37,0.9-0.83l0,0
				v-3.73c0-0.46-0.4-0.83-0.9-0.83H498.49z"/>
			<path class="st3" d="M498.49-276.05c-0.5,0-0.9,0.35-0.9,0.78v3.5l0,0c0,0.43,0.4,0.78,0.9,0.78h25.42c0.5,0,0.9-0.35,0.9-0.78
				l0,0v-3.5c0-0.43-0.4-0.78-0.9-0.78H498.49z"/>
			<path class="st3" d="M512.96-293.61l3.65,1.7c0.21,0.1,0.14,0.41-0.09,0.41h-17.99c-0.52,0-0.94-0.42-0.94-0.94v-3.98
				c0-0.52,0.42-0.94,0.94-0.94h17.99c0.23,0,0.3,0.31,0.09,0.41l-3.65,1.7C512.26-294.93,512.26-293.94,512.96-293.61z"/>
		</g>
		<path class="st1" d="M527.25-293.56c-0.75-0.34-0.75-1.41,0-1.75l6.61-3.02l7.17-3.27c0.64-0.29,1.36,0.17,1.36,0.87v6.29v6.29
			c0,0.7-0.72,1.17-1.36,0.87l-7.17-3.27L527.25-293.56z"/>
	</g>
</g>
<g>
	<g>
		<g>
			<path class="st2" d="M475.35-371.66h-2.49l-0.57,1.58h-0.48l2.08-5.67h0.44l2.07,5.67h-0.48L475.35-371.66z M473.01-372.08h2.19
				l-1.08-3.01h-0.02L473.01-372.08z"/>
			<path class="st2" d="M481.16-373.89l-0.33-0.02c-0.29,0-0.53,0.08-0.72,0.25c-0.19,0.16-0.32,0.39-0.4,0.68v2.91h-0.47v-4.22
				h0.41l0.06,0.7v0.05c0.12-0.26,0.29-0.46,0.49-0.61c0.21-0.15,0.45-0.22,0.73-0.22c0.06,0,0.11,0,0.16,0.01
				c0.05,0.01,0.09,0.02,0.13,0.03L481.16-373.89z"/>
			<path class="st2" d="M484.76-375.37v1.08h0.93v0.38h-0.93v2.75c0,0.28,0.05,0.47,0.15,0.59c0.1,0.12,0.23,0.17,0.4,0.17
				c0.06,0,0.11,0,0.17-0.01c0.05-0.01,0.12-0.02,0.19-0.03l0.07,0.35c-0.06,0.03-0.14,0.06-0.23,0.08
				c-0.09,0.02-0.18,0.03-0.27,0.03c-0.3,0-0.53-0.09-0.69-0.28c-0.17-0.19-0.25-0.48-0.25-0.89v-2.75h-0.73v-0.38h0.73v-1.08
				H484.76z"/>
			<path class="st2" d="M489.19-375.5h-0.46v-0.65h0.46V-375.5z M489.19-370.08h-0.46v-4.22h0.46V-370.08z"/>
			<path class="st2" d="M492.86-370.08v-3.83h-0.7v-0.38h0.7v-0.62c0-0.42,0.11-0.75,0.32-0.98c0.21-0.23,0.51-0.35,0.89-0.35
				c0.08,0,0.17,0.01,0.26,0.02s0.18,0.03,0.27,0.05l-0.06,0.39c-0.06-0.02-0.13-0.03-0.19-0.04c-0.06-0.01-0.14-0.01-0.23-0.01
				c-0.25,0-0.45,0.08-0.59,0.24c-0.14,0.16-0.2,0.39-0.2,0.68v0.62h0.95v0.38h-0.95v3.83H492.86z"/>
			<path class="st2" d="M497.7-375.5h-0.46v-0.65h0.46V-375.5z M497.7-370.08h-0.46v-4.22h0.46V-370.08z"/>
			<path class="st2" d="M502.6-370.39c0.3,0,0.56-0.09,0.79-0.26c0.23-0.18,0.34-0.42,0.34-0.74h0.42l0.01,0.02
				c0.01,0.39-0.14,0.72-0.46,0.98c-0.32,0.26-0.68,0.39-1.1,0.39c-0.56,0-1-0.2-1.31-0.59c-0.31-0.39-0.47-0.9-0.47-1.52v-0.16
				c0-0.61,0.16-1.12,0.47-1.51c0.31-0.39,0.75-0.59,1.31-0.59c0.45,0,0.83,0.14,1.13,0.41s0.45,0.63,0.44,1.08l-0.01,0.02h-0.42
				c0-0.34-0.11-0.61-0.33-0.81c-0.22-0.2-0.49-0.3-0.81-0.3c-0.44,0-0.77,0.16-0.99,0.49c-0.22,0.32-0.32,0.73-0.32,1.22v0.16
				c0,0.5,0.11,0.91,0.32,1.23C501.82-370.55,502.15-370.39,502.6-370.39z"/>
			<path class="st2" d="M507.75-375.5h-0.46v-0.65h0.46V-375.5z M507.75-370.08h-0.46v-4.22h0.46V-370.08z"/>
			<path class="st2" d="M513.78-370.08c-0.03-0.15-0.05-0.28-0.06-0.38c-0.01-0.11-0.02-0.22-0.02-0.33
				c-0.15,0.23-0.35,0.42-0.61,0.57c-0.26,0.15-0.56,0.22-0.9,0.22c-0.41,0-0.73-0.11-0.96-0.33c-0.23-0.22-0.34-0.52-0.34-0.89
				c0-0.38,0.17-0.68,0.49-0.92c0.33-0.23,0.76-0.35,1.29-0.35h1.04v-0.52c0-0.3-0.1-0.54-0.29-0.71c-0.19-0.17-0.46-0.26-0.81-0.26
				c-0.32,0-0.58,0.08-0.77,0.23c-0.2,0.16-0.29,0.35-0.29,0.59h-0.43l-0.01-0.02c-0.02-0.32,0.12-0.6,0.41-0.84
				c0.29-0.24,0.66-0.36,1.12-0.36c0.46,0,0.83,0.12,1.11,0.35c0.28,0.24,0.42,0.58,0.42,1.02v2.07c0,0.15,0.01,0.29,0.03,0.43
				c0.02,0.14,0.04,0.28,0.08,0.42H513.78z M512.23-370.41c0.36,0,0.67-0.08,0.93-0.26c0.26-0.17,0.44-0.39,0.53-0.66v-0.81h-1.04
				c-0.38,0-0.69,0.09-0.94,0.27c-0.25,0.18-0.37,0.4-0.37,0.65c0,0.24,0.08,0.43,0.24,0.58
				C511.73-370.48,511.95-370.41,512.23-370.41z"/>
			<path class="st2" d="M517.99-370.08h-0.46v-6.08h0.46V-370.08z"/>
			<path class="st2" d="M524.05-370.08h-0.47v-5.67h0.47V-370.08z"/>
			<path class="st2" d="M527.99-374.29l0.04,0.73c0.14-0.26,0.32-0.46,0.55-0.6c0.23-0.14,0.5-0.21,0.81-0.21
				c0.46,0,0.81,0.14,1.04,0.42c0.24,0.28,0.36,0.71,0.36,1.31v2.57h-0.47v-2.56c0-0.48-0.09-0.82-0.27-1.02
				c-0.18-0.2-0.44-0.3-0.77-0.3c-0.33,0-0.6,0.08-0.8,0.25c-0.2,0.16-0.35,0.38-0.44,0.66v2.98h-0.47v-4.22H527.99z"/>
			<path class="st2" d="M534.81-375.37v1.08h0.93v0.38h-0.93v2.75c0,0.28,0.05,0.47,0.15,0.59c0.1,0.12,0.23,0.17,0.4,0.17
				c0.06,0,0.11,0,0.17-0.01c0.05-0.01,0.12-0.02,0.19-0.03l0.07,0.35c-0.06,0.03-0.14,0.06-0.23,0.08
				c-0.09,0.02-0.18,0.03-0.27,0.03c-0.3,0-0.53-0.09-0.69-0.28c-0.17-0.19-0.25-0.48-0.25-0.89v-2.75h-0.73v-0.38h0.73v-1.08
				H534.81z"/>
			<path class="st2" d="M540.32-370c-0.55,0-0.99-0.19-1.33-0.58c-0.34-0.39-0.51-0.88-0.51-1.49v-0.21c0-0.61,0.17-1.11,0.52-1.5
				c0.34-0.39,0.77-0.59,1.28-0.59c0.51,0,0.91,0.16,1.19,0.49c0.28,0.33,0.42,0.77,0.42,1.33v0.36h-2.93v0.13
				c0,0.48,0.12,0.88,0.36,1.2c0.24,0.32,0.58,0.48,1.01,0.48c0.26,0,0.49-0.04,0.71-0.13c0.22-0.08,0.39-0.2,0.54-0.34l0.2,0.32
				c-0.15,0.16-0.34,0.28-0.58,0.39C540.94-370.05,540.66-370,540.32-370z M540.28-373.97c-0.36,0-0.65,0.13-0.88,0.39
				c-0.23,0.26-0.37,0.58-0.41,0.98l0.01,0.02h2.42v-0.1c0-0.37-0.1-0.68-0.29-0.93C540.93-373.85,540.64-373.97,540.28-373.97z"/>
			<path class="st2" d="M545.42-370.08h-0.46v-6.08h0.46V-370.08z"/>
			<path class="st2" d="M549.3-370.08h-0.46v-6.08h0.46V-370.08z"/>
			<path class="st2" d="M553.18-375.5h-0.46v-0.65h0.46V-375.5z M553.18-370.08h-0.46v-4.22h0.46V-370.08z"/>
			<path class="st2" d="M556.37-372.15c0-0.67,0.14-1.21,0.43-1.61c0.28-0.4,0.68-0.61,1.19-0.61c0.3,0,0.56,0.06,0.78,0.19
				c0.22,0.13,0.4,0.31,0.55,0.55l0.07-0.66h0.38v4.24c0,0.54-0.15,0.95-0.44,1.24c-0.3,0.29-0.72,0.44-1.26,0.44
				c-0.2,0-0.42-0.02-0.65-0.07c-0.23-0.05-0.43-0.12-0.6-0.2l0.09-0.39c0.17,0.08,0.35,0.15,0.54,0.19
				c0.19,0.04,0.4,0.06,0.61,0.06c0.42,0,0.73-0.11,0.93-0.32c0.21-0.21,0.31-0.53,0.31-0.94v-0.6c-0.14,0.21-0.32,0.37-0.54,0.48
				c-0.22,0.11-0.47,0.17-0.76,0.17c-0.5,0-0.9-0.19-1.18-0.56c-0.28-0.38-0.43-0.88-0.43-1.51V-372.15z M556.83-372.07
				c0,0.51,0.1,0.91,0.31,1.22c0.21,0.3,0.51,0.45,0.92,0.45c0.3,0,0.54-0.07,0.75-0.2c0.2-0.13,0.36-0.32,0.47-0.55v-2.01
				c-0.11-0.24-0.26-0.43-0.45-0.58c-0.2-0.15-0.45-0.22-0.75-0.22c-0.41,0-0.72,0.17-0.93,0.51c-0.21,0.34-0.31,0.77-0.31,1.31
				V-372.07z"/>
			<path class="st2" d="M564.64-370c-0.55,0-0.99-0.19-1.33-0.58c-0.34-0.39-0.51-0.88-0.51-1.49v-0.21c0-0.61,0.17-1.11,0.52-1.5
				c0.34-0.39,0.77-0.59,1.28-0.59c0.51,0,0.91,0.16,1.19,0.49c0.28,0.33,0.42,0.77,0.42,1.33v0.36h-2.93v0.13
				c0,0.48,0.12,0.88,0.36,1.2c0.24,0.32,0.58,0.48,1.01,0.48c0.26,0,0.49-0.04,0.71-0.13c0.22-0.08,0.39-0.2,0.54-0.34l0.2,0.32
				c-0.15,0.16-0.34,0.28-0.58,0.39C565.27-370.05,564.98-370,564.64-370z M564.6-373.97c-0.36,0-0.65,0.13-0.88,0.39
				c-0.23,0.26-0.37,0.58-0.41,0.98l0.01,0.02h2.42v-0.1c0-0.37-0.1-0.68-0.29-0.93C565.25-373.85,564.97-373.97,564.6-373.97z"/>
			<path class="st2" d="M569.63-374.29l0.04,0.73c0.14-0.26,0.32-0.46,0.55-0.6c0.23-0.14,0.5-0.21,0.81-0.21
				c0.46,0,0.81,0.14,1.04,0.42c0.24,0.28,0.36,0.71,0.36,1.31v2.57h-0.47v-2.56c0-0.48-0.09-0.82-0.27-1.02
				c-0.18-0.2-0.44-0.3-0.77-0.3c-0.33,0-0.6,0.08-0.8,0.25c-0.2,0.16-0.35,0.38-0.44,0.66v2.98h-0.47v-4.22H569.63z"/>
			<path class="st2" d="M577.27-370.39c0.3,0,0.56-0.09,0.79-0.26c0.23-0.18,0.34-0.42,0.34-0.74h0.42l0.01,0.02
				c0.01,0.39-0.14,0.72-0.46,0.98c-0.32,0.26-0.68,0.39-1.1,0.39c-0.56,0-1-0.2-1.31-0.59c-0.31-0.39-0.47-0.9-0.47-1.52v-0.16
				c0-0.61,0.16-1.12,0.47-1.51c0.31-0.39,0.75-0.59,1.31-0.59c0.45,0,0.83,0.14,1.13,0.41c0.3,0.27,0.45,0.63,0.44,1.08l-0.01,0.02
				h-0.42c0-0.34-0.11-0.61-0.33-0.81c-0.22-0.2-0.49-0.3-0.81-0.3c-0.44,0-0.77,0.16-0.99,0.49c-0.22,0.32-0.32,0.73-0.32,1.22
				v0.16c0,0.5,0.11,0.91,0.32,1.23C576.5-370.55,576.82-370.39,577.27-370.39z"/>
			<path class="st2" d="M583.5-370c-0.55,0-0.99-0.19-1.33-0.58c-0.34-0.39-0.51-0.88-0.51-1.49v-0.21c0-0.61,0.17-1.11,0.52-1.5
				c0.34-0.39,0.77-0.59,1.28-0.59c0.51,0,0.91,0.16,1.19,0.49c0.28,0.33,0.42,0.77,0.42,1.33v0.36h-2.93v0.13
				c0,0.48,0.12,0.88,0.36,1.2c0.24,0.32,0.58,0.48,1.01,0.48c0.26,0,0.49-0.04,0.71-0.13c0.22-0.08,0.39-0.2,0.54-0.34l0.2,0.32
				c-0.15,0.16-0.34,0.28-0.58,0.39C584.13-370.05,583.84-370,583.5-370z M583.46-373.97c-0.36,0-0.65,0.13-0.88,0.39
				c-0.23,0.26-0.37,0.58-0.41,0.98l0.01,0.02h2.42v-0.1c0-0.37-0.1-0.68-0.29-0.93C584.11-373.85,583.83-373.97,583.46-373.97z"/>
		</g>
	</g>
	<g>
		<path class="st1" d="M548.13-420h3.01c0.41,0,0.74,0.33,0.74,0.74v33.71c0,0.41-0.33,0.74-0.74,0.74h-3.01
			c-0.41,0-0.74-0.33-0.74-0.74v-33.71C547.39-419.67,547.72-420,548.13-420z"/>
		<path class="st3" d="M561.07-387.66l17.68-27.42c0.32-0.49-0.04-1.13-0.62-1.13h-14.78c-0.41,0-0.74-0.33-0.74-0.74v-2.32
			c0-0.41,0.33-0.74,0.74-0.74h20.93c0.41,0,0.74,0.33,0.74,0.74v1.71c0,0.14-0.04,0.28-0.12,0.4l-17.68,27.42
			c-0.32,0.49,0.04,1.13,0.62,1.13h16.62c0.41,0,0.74,0.33,0.74,0.74v2.32c0,0.41-0.33,0.74-0.74,0.74h-22.77
			c-0.41,0-0.74-0.33-0.74-0.74v-1.71C560.96-387.4,561-387.54,561.07-387.66z"/>
		<path class="st3" d="M495.36-384.82h-22.77c-0.41,0-0.74-0.33-0.74-0.74v-2.32c0-0.41,0.33-0.74,0.74-0.74h16.62
			c0.58,0,0.93-0.64,0.62-1.13l-17.68-27.42c-0.08-0.12-0.12-0.26-0.12-0.4v-1.71c0-0.41,0.33-0.74,0.74-0.74h20.93
			c0.41,0,0.74,0.33,0.74,0.74v2.32c0,0.41-0.33,0.74-0.74,0.74h-14.78c-0.58,0-0.93,0.64-0.62,1.13l17.68,27.42
			c0.08,0.12,0.12,0.26,0.12,0.4v1.71C496.09-385.15,495.76-384.82,495.36-384.82z"/>
		<g>
			<path class="st3" d="M505.5-420c-0.38,0-0.69,0.28-0.69,0.63v2.86v0c0,0.35,0.31,0.63,0.69,0.63h19.44
				c0.38,0,0.69-0.28,0.69-0.63v0v-2.86c0-0.35-0.31-0.63-0.69-0.63H505.5z"/>
			<path class="st3" d="M505.5-388.68c-0.38,0-0.69,0.27-0.69,0.59v2.67l0,0c0,0.33,0.31,0.59,0.69,0.59h19.44
				c0.38,0,0.69-0.27,0.69-0.59l0,0v-2.67c0-0.33-0.31-0.59-0.69-0.59H505.5z"/>
			<path class="st3" d="M516.57-402.11l2.79,1.3c0.16,0.07,0.11,0.31-0.07,0.31h-13.76c-0.4,0-0.72-0.32-0.72-0.72v-3.04
				c0-0.4,0.32-0.72,0.72-0.72h13.76c0.18,0,0.23,0.24,0.07,0.31l-2.79,1.3C516.03-403.12,516.03-402.36,516.57-402.11z"/>
		</g>
		<path class="st1" d="M527.49-402.07c-0.57-0.26-0.57-1.08,0-1.34l5.06-2.31l5.48-2.5c0.49-0.22,1.04,0.13,1.04,0.67v4.81v4.81
			c0,0.54-0.55,0.89-1.04,0.67l-5.48-2.5L527.49-402.07z"/>
	</g>
</g>
</svg>
